<svg width="24" height="25" viewBox="0 0 24 25" fill="none" xmlns="http://www.w3.org/2000/svg">
<path d="M12.8192 24.7913H1.32462C0.592836 24.7913 0 24.1969 0 23.4639V2.06881C0 1.33561 0.592929 0.741455 1.32462 0.741455H22.6755C23.407 0.741455 24 1.33561 24 2.06881V23.4639C24 24.197 23.4069 24.7913 22.6755 24.7913H16.5597V15.4779H19.6793L20.1464 11.8483H16.5597V9.53099C16.5597 8.48014 16.8509 7.76402 18.3546 7.76402L20.2727 7.76318V4.51683C19.9409 4.47259 18.8024 4.37377 17.4778 4.37377C14.7124 4.37377 12.8192 6.06525 12.8192 9.17153V11.8483H9.69156V15.4779H12.8192V24.7913Z" fill="#06B6D4"/>
</svg>
