<svg width="24" height="24" viewBox="0 0 24 24" fill="none" xmlns="http://www.w3.org/2000/svg">
<path d="M20.7797 13.2797C20.4891 13.575 20.0109 13.575 19.7203 13.2797L19.5 13.0594V15.75C19.5 16.9922 18.4922 18 17.25 18H14.5594L14.7797 18.2203C15.075 18.5109 15.075 18.9891 14.7797 19.2797C14.4891 19.575 14.0109 19.575 13.7203 19.2797L12.2203 17.7797C11.925 17.4891 11.925 17.0109 12.2203 16.7203L13.7203 15.2203C14.0109 14.925 14.4891 14.925 14.7797 15.2203C15.075 15.5109 15.075 15.9891 14.7797 16.2797L14.5594 16.5H17.25C17.6625 16.5 18 16.1625 18 15.75V13.0594L17.7797 13.2797C17.4891 13.575 17.0109 13.575 16.7203 13.2797C16.425 12.9891 16.425 12.5109 16.7203 12.2203L18.2203 10.7203C18.5109 10.425 18.9891 10.425 19.2797 10.7203L20.7797 12.2203C21.075 12.5109 21.075 12.9891 20.7797 13.2797ZM0 4.5C0 2.84297 1.34297 1.5 3 1.5H21C22.6547 1.5 24 2.84297 24 4.5V19.5C24 21.1547 22.6547 22.5 21 22.5H3C1.34297 22.5 0 21.1547 0 19.5V4.5ZM1.5 4.5V7.5H6V3H3C2.17172 3 1.5 3.67172 1.5 4.5ZM1.5 9V19.5C1.5 20.3297 2.17172 21 3 21H6V9H1.5ZM7.5 9V21H21C21.8297 21 22.5 20.3297 22.5 19.5V9H7.5ZM22.5 7.5V4.5C22.5 3.67172 21.8297 3 21 3H7.5V7.5H22.5Z" fill="white"/>
</svg>
