<svg width="24" height="24" viewBox="0 0 24 24" fill="none" xmlns="http://www.w3.org/2000/svg">
<path d="M2.57122 4.28564C2.11656 4.28564 1.68053 4.46626 1.35904 4.78775C1.03755 5.10924 0.856934 5.54527 0.856934 5.99993V21.4285C0.856934 21.8832 1.03755 22.3192 1.35904 22.6407C1.68053 22.9622 2.11656 23.1428 2.57122 23.1428H21.4284C21.883 23.1428 22.3191 22.9622 22.6405 22.6407C22.962 22.3192 23.1426 21.8832 23.1426 21.4285V5.99993C23.1426 5.54527 22.962 5.10924 22.6405 4.78775C22.3191 4.46626 21.883 4.28564 21.4284 4.28564H17.9998" stroke="white" stroke-width="2" stroke-linecap="round" stroke-linejoin="round"/>
<path d="M6 0.857178V7.71432" stroke="white" stroke-width="2" stroke-linecap="round" stroke-linejoin="round"/>
<path d="M18 0.857178V7.71432" stroke="white" stroke-width="2" stroke-linecap="round" stroke-linejoin="round"/>
<path d="M6 4.28564H14.5714" stroke="white" stroke-width="2" stroke-linecap="round" stroke-linejoin="round"/>
<path d="M6.85693 15.4285L10.2855 18L16.2855 11.1428" stroke="white" stroke-width="2" stroke-linecap="round" stroke-linejoin="round"/>
</svg>
