<svg width="24" height="21" viewBox="0 0 24 21" fill="none" xmlns="http://www.w3.org/2000/svg">
<path d="M24 3.11816C23.1182 3.52059 22.1687 3.79273 21.1727 3.91433C22.1898 3.28898 22.9702 2.2974 23.3379 1.11618C22.3856 1.69521 21.3333 2.11645 20.2092 2.34227C19.3133 1.35937 18.0328 0.745605 16.6156 0.745605C13.8982 0.745605 11.6936 3.01105 11.6936 5.80485C11.6936 6.20148 11.7359 6.58653 11.8204 6.95711C7.72812 6.74576 4.10072 4.73365 1.67072 1.66915C1.2467 2.41899 1.0044 3.28898 1.0044 4.21542C1.0044 5.96987 1.87357 7.51876 3.19493 8.42639C2.38915 8.40178 1.62846 8.17161 0.96355 7.79525V7.85749C0.96355 10.3097 2.66103 12.3551 4.91495 12.8183C4.5022 12.937 4.06691 12.9963 3.61754 12.9963C3.30058 12.9963 2.99067 12.966 2.69061 12.9066C3.31749 14.9158 5.13471 16.3793 7.29002 16.4184C5.60521 17.7762 3.48089 18.5854 1.17485 18.5854C0.777601 18.5854 0.384575 18.5622 0 18.5159C2.17926 19.949 4.76845 20.7871 7.54781 20.7871C16.6057 20.7871 21.5573 13.0789 21.5573 6.39256C21.5573 6.17253 21.5531 5.9525 21.5446 5.73681C22.5068 5.02316 23.3421 4.13291 24 3.11816Z" fill="#06B6D4"/>
</svg>
