<svg width="24" height="22" viewBox="0 0 24 22" fill="none" xmlns="http://www.w3.org/2000/svg">
<path d="M23.9879 5.61096C23.8835 7.98256 22.2494 11.2245 19.0969 15.3383C15.8344 19.6399 13.07 21.7892 10.8107 21.7892C9.4137 21.7892 8.22975 20.4815 7.26312 17.8576C6.61541 15.4501 5.97193 13.0427 5.32563 10.6424C4.60595 8.01698 3.83547 6.70499 3.01137 6.70499C2.83215 6.70499 2.20702 7.08783 1.12891 7.85495L0 6.37664C1.18253 5.32275 2.34813 4.26456 3.49821 3.20924C5.07304 1.82413 6.25698 1.09716 7.04722 1.02116C8.90992 0.837629 10.0586 2.13241 10.4918 4.90119C10.9532 7.8908 11.2778 9.74908 11.457 10.4775C11.9961 12.9552 12.5859 14.1912 13.2322 14.1912C13.7332 14.1912 14.4867 13.3911 15.4915 11.7895C16.4962 10.185 17.031 8.96619 17.1044 8.12595C17.2483 6.74084 16.7107 6.05259 15.4915 6.05259C14.9171 6.05259 14.3245 6.1759 13.7163 6.43399C14.9016 2.53532 17.1594 0.639755 20.4954 0.750163C22.9663 0.820422 24.1333 2.44355 23.9879 5.61096" fill="#06B6D4"/>
</svg>
