<svg width="24" height="18" viewBox="0 0 24 18" fill="none" xmlns="http://www.w3.org/2000/svg">
<path fill-rule="evenodd" clip-rule="evenodd" d="M22.806 2.02057C23.5252 2.75551 23.76 4.42445 23.76 4.42445C23.76 4.42445 24 6.3848 24 8.34438V10.1821C24 12.1425 23.76 14.102 23.76 14.102C23.76 14.102 23.5252 15.771 22.806 16.5059C21.9837 17.3753 21.0719 17.4652 20.5565 17.5159C20.4998 17.5215 20.4479 17.5266 20.4015 17.5323C17.043 17.7775 12 17.7851 12 17.7851C12 17.7851 5.76 17.7275 3.84 17.5413C3.74903 17.5242 3.63876 17.5108 3.51388 17.4957C2.9057 17.4221 1.95113 17.3066 1.19325 16.5059C0.474 15.771 0.24 14.102 0.24 14.102C0.24 14.102 0 12.1425 0 10.1821V8.34438C0 6.3848 0.24 4.42445 0.24 4.42445C0.24 4.42445 0.474 2.75551 1.19325 2.02057C2.0174 1.14993 2.93006 1.06108 3.44548 1.01089C3.50136 1.00545 3.55258 1.00047 3.5985 0.994988C6.957 0.749756 11.9948 0.749756 11.9948 0.749756H12.0052C12.0052 0.749756 17.043 0.749756 20.4015 0.994988C20.4474 1.00047 20.4987 1.00547 20.5546 1.01092C21.0696 1.0611 21.9827 1.15008 22.806 2.02057ZM9.52125 5.60369L9.522 12.4089L16.0057 9.01802L9.52125 5.60369Z" fill="#06B6D4"/>
</svg>
