<svg aria-roledescription="er" role="graphics-document document" viewBox="0 0 946.615234375 772" style="max-width: 3840px; background-color: white; max-height: 3840px;" xmlns:xlink="http://www.w3.org/1999/xlink" xmlns="http://www.w3.org/2000/svg" width="100%" id="my-svg"><style>#my-svg{font-family:"trebuchet ms",verdana,arial,sans-serif;font-size:14px;fill:#333;}#my-svg .error-icon{fill:#ffffff;}#my-svg .error-text{fill:#000000;stroke:#000000;}#my-svg .edge-thickness-normal{stroke-width:1px;}#my-svg .edge-thickness-thick{stroke-width:3.5px;}#my-svg .edge-pattern-solid{stroke-dasharray:0;}#my-svg .edge-thickness-invisible{stroke-width:0;fill:none;}#my-svg .edge-pattern-dashed{stroke-dasharray:3;}#my-svg .edge-pattern-dotted{stroke-dasharray:2;}#my-svg .marker{fill:#000000;stroke:#000000;}#my-svg .marker.cross{stroke:#000000;}#my-svg svg{font-family:"trebuchet ms",verdana,arial,sans-serif;font-size:14px;}#my-svg p{margin:0;}#my-svg .entityBox{fill:#ffffff;stroke:#000000;}#my-svg .attributeBoxOdd{fill:#ffffff;stroke:#000000;}#my-svg .attributeBoxEven{fill:#f2f2f2;stroke:#000000;}#my-svg .relationshipLabelBox{fill:#ffffff;opacity:0.7;background-color:#ffffff;}#my-svg .relationshipLabelBox rect{opacity:0.5;}#my-svg .relationshipLine{stroke:#000000;}#my-svg .entityTitleText{text-anchor:middle;font-size:18px;fill:#333;}#my-svg #MD_PARENT_START{fill:#f5f5f5!important;stroke:#000000!important;stroke-width:1;}#my-svg #MD_PARENT_END{fill:#f5f5f5!important;stroke:#000000!important;stroke-width:1;}#my-svg .node .neo-node{stroke:#000000;}#my-svg [data-look="neo"].node rect,#my-svg [data-look="neo"].cluster rect,#my-svg [data-look="neo"].node polygon{stroke:url(#my-svg-gradient);filter:drop-shadow( 0px 1px 2px rgba(0, 0, 0, 0.25));}#my-svg [data-look="neo"].node rect,#my-svg [data-look="neo"].node polygon,#my-svg [data-look="neo"].node path{stroke:url(#my-svg-gradient);filter:drop-shadow( 0px 1px 2px rgba(0, 0, 0, 0.25));}#my-svg [data-look="neo"].node .neo-line path{stroke:hsl(0, 0%, 70%);filter:none;}#my-svg [data-look="neo"].node circle{stroke:url(#my-svg-gradient);filter:drop-shadow( 0px 1px 2px rgba(0, 0, 0, 0.25));}#my-svg [data-look="neo"].node circle .state-start{fill:#000000;}#my-svg [data-look="neo"].statediagram-cluster rect{fill:#ffffff;stroke:url(#my-svg-gradient);stroke-width:1px;}#my-svg [data-look="neo"].icon-shape .icon{fill:url(#my-svg-gradient);filter:drop-shadow( 0px 1px 2px rgba(0, 0, 0, 0.25));}#my-svg [data-look="neo"].icon-shape .icon-neo path{stroke:url(#my-svg-gradient);filter:drop-shadow( 0px 1px 2px rgba(0, 0, 0, 0.25));}#my-svg :root{--mermaid-font-family:"trebuchet ms",verdana,arial,sans-serif;}</style><g/><defs><marker orient="auto" markerHeight="240" markerWidth="190" refY="7" refX="0" id="MD_PARENT_START"><path d="M 18,7 L9,13 L1,7 L9,1 Z"/></marker></defs><defs><marker orient="auto" markerHeight="28" markerWidth="20" refY="7" refX="19" id="MD_PARENT_END"><path d="M 18,7 L9,13 L1,7 L9,1 Z"/></marker></defs><defs><marker orient="auto" markerHeight="18" markerWidth="18" refY="9" refX="0" id="ONLY_ONE_START"><path d="M9,0 L9,18 M15,0 L15,18" fill="none" stroke="gray"/></marker></defs><defs><marker orient="auto" markerHeight="18" markerWidth="18" refY="9" refX="18" id="ONLY_ONE_END"><path d="M3,0 L3,18 M9,0 L9,18" fill="none" stroke="gray"/></marker></defs><defs><marker orient="auto" markerHeight="18" markerWidth="30" refY="9" refX="0" id="ZERO_OR_ONE_START"><circle r="6" cy="9" cx="21" fill="white" stroke="gray"/><path d="M9,0 L9,18" fill="none" stroke="gray"/></marker></defs><defs><marker orient="auto" markerHeight="18" markerWidth="30" refY="9" refX="30" id="ZERO_OR_ONE_END"><circle r="6" cy="9" cx="9" fill="white" stroke="gray"/><path d="M21,0 L21,18" fill="none" stroke="gray"/></marker></defs><defs><marker orient="auto" markerHeight="36" markerWidth="45" refY="18" refX="18" id="ONE_OR_MORE_START"><path d="M0,18 Q 18,0 36,18 Q 18,36 0,18 M42,9 L42,27" fill="none" stroke="gray"/></marker></defs><defs><marker orient="auto" markerHeight="36" markerWidth="45" refY="18" refX="27" id="ONE_OR_MORE_END"><path d="M3,9 L3,27 M9,18 Q27,0 45,18 Q27,36 9,18" fill="none" stroke="gray"/></marker></defs><defs><marker orient="auto" markerHeight="36" markerWidth="57" refY="18" refX="18" id="ZERO_OR_MORE_START"><circle r="6" cy="18" cx="48" fill="white" stroke="gray"/><path d="M0,18 Q18,0 36,18 Q18,36 0,18" fill="none" stroke="gray"/></marker></defs><defs><marker orient="auto" markerHeight="36" markerWidth="57" refY="18" refX="39" id="ZERO_OR_MORE_END"><circle r="6" cy="18" cx="9" fill="white" stroke="gray"/><path d="M21,18 Q39,0 57,18 Q39,36 21,18" fill="none" stroke="gray"/></marker></defs><path style="stroke: gray; fill: none;" marker-start="url(#ONLY_ONE_START)" marker-end="url(#ZERO_OR_MORE_END)" d="M307.173,107L296.997,115.333C286.821,123.667,266.468,140.333,256.292,157C246.116,173.667,246.116,190.333,246.116,198.667L246.116,207" class="er relationshipLine"/><path style="stroke: gray; fill: none;" marker-start="url(#ONLY_ONE_START)" marker-end="url(#ZERO_OR_MORE_END)" d="M413.413,107L423.59,115.333C433.766,123.667,454.118,140.333,464.294,157C474.471,173.667,474.471,190.333,474.471,198.667L474.471,207" class="er relationshipLine"/><path style="stroke: gray; fill: none;" marker-start="url(#ONLY_ONE_START)" marker-end="url(#ZERO_OR_MORE_END)" d="M174.937,305.565L159.115,315.471C143.294,325.377,111.651,345.188,95.99,365.177C80.329,385.167,80.65,405.333,80.81,415.417L80.97,425.5" class="er relationshipLine"/><path style="stroke: gray; fill: none;" marker-start="url(#ONLY_ONE_START)" marker-end="url(#ZERO_OR_MORE_END)" d="M271.045,315L274.892,323.333C278.739,331.667,286.433,348.333,298.269,365.413C310.106,382.493,326.084,399.986,334.073,408.733L342.063,417.479" class="er relationshipLine"/><path style="stroke: gray; fill: none;" marker-start="url(#ONLY_ONE_START)" marker-end="url(#ZERO_OR_MORE_END)" d="M417.294,282.211L380.1,296.009C342.905,309.807,268.516,337.404,222.277,361.285C176.037,385.167,157.946,405.333,148.901,415.417L139.856,425.5" class="er relationshipLine"/><path style="stroke: gray; fill: none;" marker-start="url(#ONLY_ONE_START)" marker-end="url(#ZERO_OR_MORE_END)" d="M473.693,315L473.572,323.333C473.452,331.667,473.212,348.333,468.781,365C464.35,381.667,455.727,398.333,451.416,406.667L447.105,415" class="er relationshipLine"/><path style="stroke: gray; fill: none;" marker-start="url(#ONLY_ONE_START)" marker-end="url(#ZERO_OR_MORE_END)" d="M317.294,280.03L370.263,294.192C423.231,308.354,529.167,336.677,582.135,364.422C635.103,392.167,635.103,419.333,635.103,432.917L635.103,446.5" class="er relationshipLine"/><path style="stroke: gray; fill: none;" marker-start="url(#ONLY_ONE_START)" marker-end="url(#ZERO_OR_MORE_END)" d="M635.103,533.5L635.103,547.083C635.103,560.667,635.103,587.833,635.103,609.75C635.103,631.667,635.103,648.333,635.103,656.667L635.103,665" class="er relationshipLine"/><path style="stroke: gray; fill: none;" marker-start="url(#ONLY_ONE_START)" marker-end="url(#ZERO_OR_MORE_END)" d="M531.647,276.37L586.598,291.142C641.549,305.913,751.451,335.457,806.402,362.062C861.353,388.667,861.353,412.333,861.353,424.167L861.353,436" class="er relationshipLine"/><g transform="translate(301.29417419433594,20 )" id="entity-WORKSPACE-6025abd4-8157-5bcd-9036-214f8e8153f2"><rect height="87" width="117.99810791015625" y="0" x="0" class="er entityBox"/><text style="dominant-baseline: middle; text-anchor: middle; font-size: 12px;" transform="translate(58.999053955078125,12)" y="0" x="0" id="text-entity-WORKSPACE-6025abd4-8157-5bcd-9036-214f8e8153f2" class="er entityLabel">WORKSPACE</text><rect height="21" width="34.921875" y="24" x="0" class="er attributeBoxOdd"/><text style="dominant-baseline: middle; font-size: 10.2px;" transform="translate(5,34.5)" y="0" x="0" id="text-entity-WORKSPACE-6025abd4-8157-5bcd-9036-214f8e8153f2-attr-1-type" class="er entityLabel">int</text><rect height="21" width="59.28125" y="24" x="34.921875" class="er attributeBoxOdd"/><text style="dominant-baseline: middle; font-size: 10.2px;" transform="translate(39.921875,34.5)" y="0" x="0" id="text-entity-WORKSPACE-6025abd4-8157-5bcd-9036-214f8e8153f2-attr-1-name" class="er entityLabel">id</text><rect height="21" width="23.79498291015625" y="24" x="94.203125" class="er attributeBoxOdd"/><text style="dominant-baseline: middle; font-size: 10.2px;" transform="translate(99.203125,34.5)" y="0" x="0" id="text-entity-WORKSPACE-6025abd4-8157-5bcd-9036-214f8e8153f2-attr-1-key" class="er entityLabel">PK</text><rect height="21" width="34.921875" y="45" x="0" class="er attributeBoxEven"/><text style="dominant-baseline: middle; font-size: 10.2px;" transform="translate(5,55.5)" y="0" x="0" id="text-entity-WORKSPACE-6025abd4-8157-5bcd-9036-214f8e8153f2-attr-2-type" class="er entityLabel">string</text><rect height="21" width="59.28125" y="45" x="34.921875" class="er attributeBoxEven"/><text style="dominant-baseline: middle; font-size: 10.2px;" transform="translate(39.921875,55.5)" y="0" x="0" id="text-entity-WORKSPACE-6025abd4-8157-5bcd-9036-214f8e8153f2-attr-2-name" class="er entityLabel">name</text><rect height="21" width="23.79498291015625" y="45" x="94.203125" class="er attributeBoxEven"/><text style="dominant-baseline: middle; font-size: 10.2px;" transform="translate(99.203125,55.5)" y="0" x="0" id="text-entity-WORKSPACE-6025abd4-8157-5bcd-9036-214f8e8153f2-attr-2-key" class="er entityLabel"/><rect height="21" width="34.921875" y="66" x="0" class="er attributeBoxOdd"/><text style="dominant-baseline: middle; font-size: 10.2px;" transform="translate(5,76.5)" y="0" x="0" id="text-entity-WORKSPACE-6025abd4-8157-5bcd-9036-214f8e8153f2-attr-3-type" class="er entityLabel">string</text><rect height="21" width="59.28125" y="66" x="34.921875" class="er attributeBoxOdd"/><text style="dominant-baseline: middle; font-size: 10.2px;" transform="translate(39.921875,76.5)" y="0" x="0" id="text-entity-WORKSPACE-6025abd4-8157-5bcd-9036-214f8e8153f2-attr-3-name" class="er entityLabel">description</text><rect height="21" width="23.79498291015625" y="66" x="94.203125" class="er attributeBoxOdd"/><text style="dominant-baseline: middle; font-size: 10.2px;" transform="translate(99.203125,76.5)" y="0" x="0" id="text-entity-WORKSPACE-6025abd4-8157-5bcd-9036-214f8e8153f2-attr-3-key" class="er entityLabel"/></g><g transform="translate(417.29444885253906,207 )" id="entity-USER-6e7e2962-0c6f-577d-a7fd-2ce3a0cfd2c8"><rect height="108" width="114.35260009765625" y="0" x="0" class="er entityBox"/><text style="dominant-baseline: middle; text-anchor: middle; font-size: 12px;" transform="translate(57.176300048828125,12)" y="0" x="0" id="text-entity-USER-6e7e2962-0c6f-577d-a7fd-2ce3a0cfd2c8" class="er entityLabel">USER</text><rect height="21" width="34.921875" y="24" x="0" class="er attributeBoxOdd"/><text style="dominant-baseline: middle; font-size: 10.2px;" transform="translate(5,34.5)" y="0" x="0" id="text-entity-USER-6e7e2962-0c6f-577d-a7fd-2ce3a0cfd2c8-attr-1-type" class="er entityLabel">int</text><rect height="21" width="55.6357421875" y="24" x="34.921875" class="er attributeBoxOdd"/><text style="dominant-baseline: middle; font-size: 10.2px;" transform="translate(39.921875,34.5)" y="0" x="0" id="text-entity-USER-6e7e2962-0c6f-577d-a7fd-2ce3a0cfd2c8-attr-1-name" class="er entityLabel">id</text><rect height="21" width="23.79498291015625" y="24" x="90.5576171875" class="er attributeBoxOdd"/><text style="dominant-baseline: middle; font-size: 10.2px;" transform="translate(95.5576171875,34.5)" y="0" x="0" id="text-entity-USER-6e7e2962-0c6f-577d-a7fd-2ce3a0cfd2c8-attr-1-key" class="er entityLabel">PK</text><rect height="21" width="34.921875" y="45" x="0" class="er attributeBoxEven"/><text style="dominant-baseline: middle; font-size: 10.2px;" transform="translate(5,55.5)" y="0" x="0" id="text-entity-USER-6e7e2962-0c6f-577d-a7fd-2ce3a0cfd2c8-attr-2-type" class="er entityLabel">string</text><rect height="21" width="55.6357421875" y="45" x="34.921875" class="er attributeBoxEven"/><text style="dominant-baseline: middle; font-size: 10.2px;" transform="translate(39.921875,55.5)" y="0" x="0" id="text-entity-USER-6e7e2962-0c6f-577d-a7fd-2ce3a0cfd2c8-attr-2-name" class="er entityLabel">username</text><rect height="21" width="23.79498291015625" y="45" x="90.5576171875" class="er attributeBoxEven"/><text style="dominant-baseline: middle; font-size: 10.2px;" transform="translate(95.5576171875,55.5)" y="0" x="0" id="text-entity-USER-6e7e2962-0c6f-577d-a7fd-2ce3a0cfd2c8-attr-2-key" class="er entityLabel"/><rect height="21" width="34.921875" y="66" x="0" class="er attributeBoxOdd"/><text style="dominant-baseline: middle; font-size: 10.2px;" transform="translate(5,76.5)" y="0" x="0" id="text-entity-USER-6e7e2962-0c6f-577d-a7fd-2ce3a0cfd2c8-attr-3-type" class="er entityLabel">string</text><rect height="21" width="55.6357421875" y="66" x="34.921875" class="er attributeBoxOdd"/><text style="dominant-baseline: middle; font-size: 10.2px;" transform="translate(39.921875,76.5)" y="0" x="0" id="text-entity-USER-6e7e2962-0c6f-577d-a7fd-2ce3a0cfd2c8-attr-3-name" class="er entityLabel">email</text><rect height="21" width="23.79498291015625" y="66" x="90.5576171875" class="er attributeBoxOdd"/><text style="dominant-baseline: middle; font-size: 10.2px;" transform="translate(95.5576171875,76.5)" y="0" x="0" id="text-entity-USER-6e7e2962-0c6f-577d-a7fd-2ce3a0cfd2c8-attr-3-key" class="er entityLabel"/><rect height="21" width="34.921875" y="87" x="0" class="er attributeBoxEven"/><text style="dominant-baseline: middle; font-size: 10.2px;" transform="translate(5,97.5)" y="0" x="0" id="text-entity-USER-6e7e2962-0c6f-577d-a7fd-2ce3a0cfd2c8-attr-4-type" class="er entityLabel">string</text><rect height="21" width="55.6357421875" y="87" x="34.921875" class="er attributeBoxEven"/><text style="dominant-baseline: middle; font-size: 10.2px;" transform="translate(39.921875,97.5)" y="0" x="0" id="text-entity-USER-6e7e2962-0c6f-577d-a7fd-2ce3a0cfd2c8-attr-4-name" class="er entityLabel">password</text><rect height="21" width="23.79498291015625" y="87" x="90.5576171875" class="er attributeBoxEven"/><text style="dominant-baseline: middle; font-size: 10.2px;" transform="translate(95.5576171875,97.5)" y="0" x="0" id="text-entity-USER-6e7e2962-0c6f-577d-a7fd-2ce3a0cfd2c8-attr-4-key" class="er entityLabel"/></g><g transform="translate(174.9369659423828,207 )" id="entity-CHANNEL-6cb96bd1-e83a-59d1-94c7-50a2178d87d2"><rect height="108" width="142.35748291015625" y="0" x="0" class="er entityBox"/><text style="dominant-baseline: middle; text-anchor: middle; font-size: 12px;" transform="translate(71.17874145507812,12)" y="0" x="0" id="text-entity-CHANNEL-6cb96bd1-e83a-59d1-94c7-50a2178d87d2" class="er entityLabel">CHANNEL</text><rect height="21" width="46.265625" y="24" x="0" class="er attributeBoxOdd"/><text style="dominant-baseline: middle; font-size: 10.2px;" transform="translate(5,34.5)" y="0" x="0" id="text-entity-CHANNEL-6cb96bd1-e83a-59d1-94c7-50a2178d87d2-attr-1-type" class="er entityLabel">int</text><rect height="21" width="72.296875" y="24" x="46.265625" class="er attributeBoxOdd"/><text style="dominant-baseline: middle; font-size: 10.2px;" transform="translate(51.265625,34.5)" y="0" x="0" id="text-entity-CHANNEL-6cb96bd1-e83a-59d1-94c7-50a2178d87d2-attr-1-name" class="er entityLabel">id</text><rect height="21" width="23.79498291015625" y="24" x="118.5625" class="er attributeBoxOdd"/><text style="dominant-baseline: middle; font-size: 10.2px;" transform="translate(123.5625,34.5)" y="0" x="0" id="text-entity-CHANNEL-6cb96bd1-e83a-59d1-94c7-50a2178d87d2-attr-1-key" class="er entityLabel">PK</text><rect height="21" width="46.265625" y="45" x="0" class="er attributeBoxEven"/><text style="dominant-baseline: middle; font-size: 10.2px;" transform="translate(5,55.5)" y="0" x="0" id="text-entity-CHANNEL-6cb96bd1-e83a-59d1-94c7-50a2178d87d2-attr-2-type" class="er entityLabel">string</text><rect height="21" width="72.296875" y="45" x="46.265625" class="er attributeBoxEven"/><text style="dominant-baseline: middle; font-size: 10.2px;" transform="translate(51.265625,55.5)" y="0" x="0" id="text-entity-CHANNEL-6cb96bd1-e83a-59d1-94c7-50a2178d87d2-attr-2-name" class="er entityLabel">name</text><rect height="21" width="23.79498291015625" y="45" x="118.5625" class="er attributeBoxEven"/><text style="dominant-baseline: middle; font-size: 10.2px;" transform="translate(123.5625,55.5)" y="0" x="0" id="text-entity-CHANNEL-6cb96bd1-e83a-59d1-94c7-50a2178d87d2-attr-2-key" class="er entityLabel"/><rect height="21" width="46.265625" y="66" x="0" class="er attributeBoxOdd"/><text style="dominant-baseline: middle; font-size: 10.2px;" transform="translate(5,76.5)" y="0" x="0" id="text-entity-CHANNEL-6cb96bd1-e83a-59d1-94c7-50a2178d87d2-attr-3-type" class="er entityLabel">boolean</text><rect height="21" width="72.296875" y="66" x="46.265625" class="er attributeBoxOdd"/><text style="dominant-baseline: middle; font-size: 10.2px;" transform="translate(51.265625,76.5)" y="0" x="0" id="text-entity-CHANNEL-6cb96bd1-e83a-59d1-94c7-50a2178d87d2-attr-3-name" class="er entityLabel">is_protected</text><rect height="21" width="23.79498291015625" y="66" x="118.5625" class="er attributeBoxOdd"/><text style="dominant-baseline: middle; font-size: 10.2px;" transform="translate(123.5625,76.5)" y="0" x="0" id="text-entity-CHANNEL-6cb96bd1-e83a-59d1-94c7-50a2178d87d2-attr-3-key" class="er entityLabel"/><rect height="21" width="46.265625" y="87" x="0" class="er attributeBoxEven"/><text style="dominant-baseline: middle; font-size: 10.2px;" transform="translate(5,97.5)" y="0" x="0" id="text-entity-CHANNEL-6cb96bd1-e83a-59d1-94c7-50a2178d87d2-attr-4-type" class="er entityLabel">int</text><rect height="21" width="72.296875" y="87" x="46.265625" class="er attributeBoxEven"/><text style="dominant-baseline: middle; font-size: 10.2px;" transform="translate(51.265625,97.5)" y="0" x="0" id="text-entity-CHANNEL-6cb96bd1-e83a-59d1-94c7-50a2178d87d2-attr-4-name" class="er entityLabel">workspace_id</text><rect height="21" width="23.79498291015625" y="87" x="118.5625" class="er attributeBoxEven"/><text style="dominant-baseline: middle; font-size: 10.2px;" transform="translate(123.5625,97.5)" y="0" x="0" id="text-entity-CHANNEL-6cb96bd1-e83a-59d1-94c7-50a2178d87d2-attr-4-key" class="er entityLabel">FK</text></g><g transform="translate(20,425.5 )" id="entity-TASK-5f0ceeb5-8943-5386-8f04-a46640e9fb8e"><rect height="129" width="123.992919921875" y="0" x="0" class="er entityBox"/><text style="dominant-baseline: middle; text-anchor: middle; font-size: 12px;" transform="translate(61.9964599609375,12)" y="0" x="0" id="text-entity-TASK-5f0ceeb5-8943-5386-8f04-a46640e9fb8e" class="er entityLabel">TASK</text><rect height="21" width="34.921875" y="24" x="0" class="er attributeBoxOdd"/><text style="dominant-baseline: middle; font-size: 10.2px;" transform="translate(5,34.5)" y="0" x="0" id="text-entity-TASK-5f0ceeb5-8943-5386-8f04-a46640e9fb8e-attr-1-type" class="er entityLabel">int</text><rect height="21" width="65.27606201171875" y="24" x="34.921875" class="er attributeBoxOdd"/><text style="dominant-baseline: middle; font-size: 10.2px;" transform="translate(39.921875,34.5)" y="0" x="0" id="text-entity-TASK-5f0ceeb5-8943-5386-8f04-a46640e9fb8e-attr-1-name" class="er entityLabel">id</text><rect height="21" width="23.79498291015625" y="24" x="100.19793701171875" class="er attributeBoxOdd"/><text style="dominant-baseline: middle; font-size: 10.2px;" transform="translate(105.19793701171875,34.5)" y="0" x="0" id="text-entity-TASK-5f0ceeb5-8943-5386-8f04-a46640e9fb8e-attr-1-key" class="er entityLabel">PK</text><rect height="21" width="34.921875" y="45" x="0" class="er attributeBoxEven"/><text style="dominant-baseline: middle; font-size: 10.2px;" transform="translate(5,55.5)" y="0" x="0" id="text-entity-TASK-5f0ceeb5-8943-5386-8f04-a46640e9fb8e-attr-2-type" class="er entityLabel">string</text><rect height="21" width="65.27606201171875" y="45" x="34.921875" class="er attributeBoxEven"/><text style="dominant-baseline: middle; font-size: 10.2px;" transform="translate(39.921875,55.5)" y="0" x="0" id="text-entity-TASK-5f0ceeb5-8943-5386-8f04-a46640e9fb8e-attr-2-name" class="er entityLabel">title</text><rect height="21" width="23.79498291015625" y="45" x="100.19793701171875" class="er attributeBoxEven"/><text style="dominant-baseline: middle; font-size: 10.2px;" transform="translate(105.19793701171875,55.5)" y="0" x="0" id="text-entity-TASK-5f0ceeb5-8943-5386-8f04-a46640e9fb8e-attr-2-key" class="er entityLabel"/><rect height="21" width="34.921875" y="66" x="0" class="er attributeBoxOdd"/><text style="dominant-baseline: middle; font-size: 10.2px;" transform="translate(5,76.5)" y="0" x="0" id="text-entity-TASK-5f0ceeb5-8943-5386-8f04-a46640e9fb8e-attr-3-type" class="er entityLabel">string</text><rect height="21" width="65.27606201171875" y="66" x="34.921875" class="er attributeBoxOdd"/><text style="dominant-baseline: middle; font-size: 10.2px;" transform="translate(39.921875,76.5)" y="0" x="0" id="text-entity-TASK-5f0ceeb5-8943-5386-8f04-a46640e9fb8e-attr-3-name" class="er entityLabel">status</text><rect height="21" width="23.79498291015625" y="66" x="100.19793701171875" class="er attributeBoxOdd"/><text style="dominant-baseline: middle; font-size: 10.2px;" transform="translate(105.19793701171875,76.5)" y="0" x="0" id="text-entity-TASK-5f0ceeb5-8943-5386-8f04-a46640e9fb8e-attr-3-key" class="er entityLabel"/><rect height="21" width="34.921875" y="87" x="0" class="er attributeBoxEven"/><text style="dominant-baseline: middle; font-size: 10.2px;" transform="translate(5,97.5)" y="0" x="0" id="text-entity-TASK-5f0ceeb5-8943-5386-8f04-a46640e9fb8e-attr-4-type" class="er entityLabel">int</text><rect height="21" width="65.27606201171875" y="87" x="34.921875" class="er attributeBoxEven"/><text style="dominant-baseline: middle; font-size: 10.2px;" transform="translate(39.921875,97.5)" y="0" x="0" id="text-entity-TASK-5f0ceeb5-8943-5386-8f04-a46640e9fb8e-attr-4-name" class="er entityLabel">assigned_to</text><rect height="21" width="23.79498291015625" y="87" x="100.19793701171875" class="er attributeBoxEven"/><text style="dominant-baseline: middle; font-size: 10.2px;" transform="translate(105.19793701171875,97.5)" y="0" x="0" id="text-entity-TASK-5f0ceeb5-8943-5386-8f04-a46640e9fb8e-attr-4-key" class="er entityLabel">FK</text><rect height="21" width="34.921875" y="108" x="0" class="er attributeBoxOdd"/><text style="dominant-baseline: middle; font-size: 10.2px;" transform="translate(5,118.5)" y="0" x="0" id="text-entity-TASK-5f0ceeb5-8943-5386-8f04-a46640e9fb8e-attr-5-type" class="er entityLabel">int</text><rect height="21" width="65.27606201171875" y="108" x="34.921875" class="er attributeBoxOdd"/><text style="dominant-baseline: middle; font-size: 10.2px;" transform="translate(39.921875,118.5)" y="0" x="0" id="text-entity-TASK-5f0ceeb5-8943-5386-8f04-a46640e9fb8e-attr-5-name" class="er entityLabel">channel_id</text><rect height="21" width="23.79498291015625" y="108" x="100.19793701171875" class="er attributeBoxOdd"/><text style="dominant-baseline: middle; font-size: 10.2px;" transform="translate(105.19793701171875,118.5)" y="0" x="0" id="text-entity-TASK-5f0ceeb5-8943-5386-8f04-a46640e9fb8e-attr-5-key" class="er entityLabel">FK</text></g><g transform="translate(342.0626907348633,415 )" id="entity-MESSAGE-45ace235-70e4-5c04-9b4c-12c807a6512c"><rect height="150" width="132.48406982421875" y="0" x="0" class="er entityBox"/><text style="dominant-baseline: middle; text-anchor: middle; font-size: 12px;" transform="translate(66.24203491210938,12)" y="0" x="0" id="text-entity-MESSAGE-45ace235-70e4-5c04-9b4c-12c807a6512c" class="er entityLabel">MESSAGE</text><rect height="21" width="49.4078369140625" y="24" x="0" class="er attributeBoxOdd"/><text style="dominant-baseline: middle; font-size: 10.2px;" transform="translate(5,34.5)" y="0" x="0" id="text-entity-MESSAGE-45ace235-70e4-5c04-9b4c-12c807a6512c-attr-1-type" class="er entityLabel">int</text><rect height="21" width="59.28125" y="24" x="49.4078369140625" class="er attributeBoxOdd"/><text style="dominant-baseline: middle; font-size: 10.2px;" transform="translate(54.4078369140625,34.5)" y="0" x="0" id="text-entity-MESSAGE-45ace235-70e4-5c04-9b4c-12c807a6512c-attr-1-name" class="er entityLabel">id</text><rect height="21" width="23.79498291015625" y="24" x="108.6890869140625" class="er attributeBoxOdd"/><text style="dominant-baseline: middle; font-size: 10.2px;" transform="translate(113.6890869140625,34.5)" y="0" x="0" id="text-entity-MESSAGE-45ace235-70e4-5c04-9b4c-12c807a6512c-attr-1-key" class="er entityLabel">PK</text><rect height="21" width="49.4078369140625" y="45" x="0" class="er attributeBoxEven"/><text style="dominant-baseline: middle; font-size: 10.2px;" transform="translate(5,55.5)" y="0" x="0" id="text-entity-MESSAGE-45ace235-70e4-5c04-9b4c-12c807a6512c-attr-2-type" class="er entityLabel">string</text><rect height="21" width="59.28125" y="45" x="49.4078369140625" class="er attributeBoxEven"/><text style="dominant-baseline: middle; font-size: 10.2px;" transform="translate(54.4078369140625,55.5)" y="0" x="0" id="text-entity-MESSAGE-45ace235-70e4-5c04-9b4c-12c807a6512c-attr-2-name" class="er entityLabel">content</text><rect height="21" width="23.79498291015625" y="45" x="108.6890869140625" class="er attributeBoxEven"/><text style="dominant-baseline: middle; font-size: 10.2px;" transform="translate(113.6890869140625,55.5)" y="0" x="0" id="text-entity-MESSAGE-45ace235-70e4-5c04-9b4c-12c807a6512c-attr-2-key" class="er entityLabel"/><rect height="21" width="49.4078369140625" y="66" x="0" class="er attributeBoxOdd"/><text style="dominant-baseline: middle; font-size: 10.2px;" transform="translate(5,76.5)" y="0" x="0" id="text-entity-MESSAGE-45ace235-70e4-5c04-9b4c-12c807a6512c-attr-3-type" class="er entityLabel">datetime</text><rect height="21" width="59.28125" y="66" x="49.4078369140625" class="er attributeBoxOdd"/><text style="dominant-baseline: middle; font-size: 10.2px;" transform="translate(54.4078369140625,76.5)" y="0" x="0" id="text-entity-MESSAGE-45ace235-70e4-5c04-9b4c-12c807a6512c-attr-3-name" class="er entityLabel">timestamp</text><rect height="21" width="23.79498291015625" y="66" x="108.6890869140625" class="er attributeBoxOdd"/><text style="dominant-baseline: middle; font-size: 10.2px;" transform="translate(113.6890869140625,76.5)" y="0" x="0" id="text-entity-MESSAGE-45ace235-70e4-5c04-9b4c-12c807a6512c-attr-3-key" class="er entityLabel"/><rect height="21" width="49.4078369140625" y="87" x="0" class="er attributeBoxEven"/><text style="dominant-baseline: middle; font-size: 10.2px;" transform="translate(5,97.5)" y="0" x="0" id="text-entity-MESSAGE-45ace235-70e4-5c04-9b4c-12c807a6512c-attr-4-type" class="er entityLabel">boolean</text><rect height="21" width="59.28125" y="87" x="49.4078369140625" class="er attributeBoxEven"/><text style="dominant-baseline: middle; font-size: 10.2px;" transform="translate(54.4078369140625,97.5)" y="0" x="0" id="text-entity-MESSAGE-45ace235-70e4-5c04-9b4c-12c807a6512c-attr-4-name" class="er entityLabel">is_edited</text><rect height="21" width="23.79498291015625" y="87" x="108.6890869140625" class="er attributeBoxEven"/><text style="dominant-baseline: middle; font-size: 10.2px;" transform="translate(113.6890869140625,97.5)" y="0" x="0" id="text-entity-MESSAGE-45ace235-70e4-5c04-9b4c-12c807a6512c-attr-4-key" class="er entityLabel"/><rect height="21" width="49.4078369140625" y="108" x="0" class="er attributeBoxOdd"/><text style="dominant-baseline: middle; font-size: 10.2px;" transform="translate(5,118.5)" y="0" x="0" id="text-entity-MESSAGE-45ace235-70e4-5c04-9b4c-12c807a6512c-attr-5-type" class="er entityLabel">int</text><rect height="21" width="59.28125" y="108" x="49.4078369140625" class="er attributeBoxOdd"/><text style="dominant-baseline: middle; font-size: 10.2px;" transform="translate(54.4078369140625,118.5)" y="0" x="0" id="text-entity-MESSAGE-45ace235-70e4-5c04-9b4c-12c807a6512c-attr-5-name" class="er entityLabel">user_id</text><rect height="21" width="23.79498291015625" y="108" x="108.6890869140625" class="er attributeBoxOdd"/><text style="dominant-baseline: middle; font-size: 10.2px;" transform="translate(113.6890869140625,118.5)" y="0" x="0" id="text-entity-MESSAGE-45ace235-70e4-5c04-9b4c-12c807a6512c-attr-5-key" class="er entityLabel">FK</text><rect height="21" width="49.4078369140625" y="129" x="0" class="er attributeBoxEven"/><text style="dominant-baseline: middle; font-size: 10.2px;" transform="translate(5,139.5)" y="0" x="0" id="text-entity-MESSAGE-45ace235-70e4-5c04-9b4c-12c807a6512c-attr-6-type" class="er entityLabel">int</text><rect height="21" width="59.28125" y="129" x="49.4078369140625" class="er attributeBoxEven"/><text style="dominant-baseline: middle; font-size: 10.2px;" transform="translate(54.4078369140625,139.5)" y="0" x="0" id="text-entity-MESSAGE-45ace235-70e4-5c04-9b4c-12c807a6512c-attr-6-name" class="er entityLabel">channel_id</text><rect height="21" width="23.79498291015625" y="129" x="108.6890869140625" class="er attributeBoxEven"/><text style="dominant-baseline: middle; font-size: 10.2px;" transform="translate(113.6890869140625,139.5)" y="0" x="0" id="text-entity-MESSAGE-45ace235-70e4-5c04-9b4c-12c807a6512c-attr-6-key" class="er entityLabel">FK</text></g><g transform="translate(576.1037368774414,446.5 )" id="entity-POLL-80bce923-92b7-597a-b381-6b77a2f06df6"><rect height="87" width="117.99810791015625" y="0" x="0" class="er entityBox"/><text style="dominant-baseline: middle; text-anchor: middle; font-size: 12px;" transform="translate(58.999053955078125,12)" y="0" x="0" id="text-entity-POLL-80bce923-92b7-597a-b381-6b77a2f06df6" class="er entityLabel">POLL</text><rect height="21" width="34.921875" y="24" x="0" class="er attributeBoxOdd"/><text style="dominant-baseline: middle; font-size: 10.2px;" transform="translate(5,34.5)" y="0" x="0" id="text-entity-POLL-80bce923-92b7-597a-b381-6b77a2f06df6-attr-1-type" class="er entityLabel">int</text><rect height="21" width="59.28125" y="24" x="34.921875" class="er attributeBoxOdd"/><text style="dominant-baseline: middle; font-size: 10.2px;" transform="translate(39.921875,34.5)" y="0" x="0" id="text-entity-POLL-80bce923-92b7-597a-b381-6b77a2f06df6-attr-1-name" class="er entityLabel">id</text><rect height="21" width="23.79498291015625" y="24" x="94.203125" class="er attributeBoxOdd"/><text style="dominant-baseline: middle; font-size: 10.2px;" transform="translate(99.203125,34.5)" y="0" x="0" id="text-entity-POLL-80bce923-92b7-597a-b381-6b77a2f06df6-attr-1-key" class="er entityLabel">PK</text><rect height="21" width="34.921875" y="45" x="0" class="er attributeBoxEven"/><text style="dominant-baseline: middle; font-size: 10.2px;" transform="translate(5,55.5)" y="0" x="0" id="text-entity-POLL-80bce923-92b7-597a-b381-6b77a2f06df6-attr-2-type" class="er entityLabel">string</text><rect height="21" width="59.28125" y="45" x="34.921875" class="er attributeBoxEven"/><text style="dominant-baseline: middle; font-size: 10.2px;" transform="translate(39.921875,55.5)" y="0" x="0" id="text-entity-POLL-80bce923-92b7-597a-b381-6b77a2f06df6-attr-2-name" class="er entityLabel">question</text><rect height="21" width="23.79498291015625" y="45" x="94.203125" class="er attributeBoxEven"/><text style="dominant-baseline: middle; font-size: 10.2px;" transform="translate(99.203125,55.5)" y="0" x="0" id="text-entity-POLL-80bce923-92b7-597a-b381-6b77a2f06df6-attr-2-key" class="er entityLabel"/><rect height="21" width="34.921875" y="66" x="0" class="er attributeBoxOdd"/><text style="dominant-baseline: middle; font-size: 10.2px;" transform="translate(5,76.5)" y="0" x="0" id="text-entity-POLL-80bce923-92b7-597a-b381-6b77a2f06df6-attr-3-type" class="er entityLabel">int</text><rect height="21" width="59.28125" y="66" x="34.921875" class="er attributeBoxOdd"/><text style="dominant-baseline: middle; font-size: 10.2px;" transform="translate(39.921875,76.5)" y="0" x="0" id="text-entity-POLL-80bce923-92b7-597a-b381-6b77a2f06df6-attr-3-name" class="er entityLabel">channel_id</text><rect height="21" width="23.79498291015625" y="66" x="94.203125" class="er attributeBoxOdd"/><text style="dominant-baseline: middle; font-size: 10.2px;" transform="translate(99.203125,76.5)" y="0" x="0" id="text-entity-POLL-80bce923-92b7-597a-b381-6b77a2f06df6-attr-3-key" class="er entityLabel">FK</text></g><g transform="translate(575.7379989624023,665 )" id="entity-POLLOPTION-303965fd-9827-516a-897c-9851d18fc87b"><rect height="87" width="118.72958374023438" y="0" x="0" class="er entityBox"/><text style="dominant-baseline: middle; text-anchor: middle; font-size: 12px;" transform="translate(59.36479187011719,12)" y="0" x="0" id="text-entity-POLLOPTION-303965fd-9827-516a-897c-9851d18fc87b" class="er entityLabel">POLL_OPTION</text><rect height="21" width="34.921875" y="24" x="0" class="er attributeBoxOdd"/><text style="dominant-baseline: middle; font-size: 10.2px;" transform="translate(5,34.5)" y="0" x="0" id="text-entity-POLLOPTION-303965fd-9827-516a-897c-9851d18fc87b-attr-1-type" class="er entityLabel">int</text><rect height="21" width="60.012725830078125" y="24" x="34.921875" class="er attributeBoxOdd"/><text style="dominant-baseline: middle; font-size: 10.2px;" transform="translate(39.921875,34.5)" y="0" x="0" id="text-entity-POLLOPTION-303965fd-9827-516a-897c-9851d18fc87b-attr-1-name" class="er entityLabel">id</text><rect height="21" width="23.79498291015625" y="24" x="94.93460083007812" class="er attributeBoxOdd"/><text style="dominant-baseline: middle; font-size: 10.2px;" transform="translate(99.93460083007812,34.5)" y="0" x="0" id="text-entity-POLLOPTION-303965fd-9827-516a-897c-9851d18fc87b-attr-1-key" class="er entityLabel">PK</text><rect height="21" width="34.921875" y="45" x="0" class="er attributeBoxEven"/><text style="dominant-baseline: middle; font-size: 10.2px;" transform="translate(5,55.5)" y="0" x="0" id="text-entity-POLLOPTION-303965fd-9827-516a-897c-9851d18fc87b-attr-2-type" class="er entityLabel">string</text><rect height="21" width="60.012725830078125" y="45" x="34.921875" class="er attributeBoxEven"/><text style="dominant-baseline: middle; font-size: 10.2px;" transform="translate(39.921875,55.5)" y="0" x="0" id="text-entity-POLLOPTION-303965fd-9827-516a-897c-9851d18fc87b-attr-2-name" class="er entityLabel">option_text</text><rect height="21" width="23.79498291015625" y="45" x="94.93460083007812" class="er attributeBoxEven"/><text style="dominant-baseline: middle; font-size: 10.2px;" transform="translate(99.93460083007812,55.5)" y="0" x="0" id="text-entity-POLLOPTION-303965fd-9827-516a-897c-9851d18fc87b-attr-2-key" class="er entityLabel"/><rect height="21" width="34.921875" y="66" x="0" class="er attributeBoxOdd"/><text style="dominant-baseline: middle; font-size: 10.2px;" transform="translate(5,76.5)" y="0" x="0" id="text-entity-POLLOPTION-303965fd-9827-516a-897c-9851d18fc87b-attr-3-type" class="er entityLabel">int</text><rect height="21" width="60.012725830078125" y="66" x="34.921875" class="er attributeBoxOdd"/><text style="dominant-baseline: middle; font-size: 10.2px;" transform="translate(39.921875,76.5)" y="0" x="0" id="text-entity-POLLOPTION-303965fd-9827-516a-897c-9851d18fc87b-attr-3-name" class="er entityLabel">poll_id</text><rect height="21" width="23.79498291015625" y="66" x="94.93460083007812" class="er attributeBoxOdd"/><text style="dominant-baseline: middle; font-size: 10.2px;" transform="translate(99.93460083007812,76.5)" y="0" x="0" id="text-entity-POLLOPTION-303965fd-9827-516a-897c-9851d18fc87b-attr-3-key" class="er entityLabel">FK</text></g><g transform="translate(796.0903472900391,436 )" id="entity-NOTIFICATION-5f6efb57-77a0-5636-b1c2-92f816a1abf8"><rect height="108" width="130.52487182617188" y="0" x="0" class="er entityBox"/><text style="dominant-baseline: middle; text-anchor: middle; font-size: 12px;" transform="translate(65.26243591308594,12)" y="0" x="0" id="text-entity-NOTIFICATION-5f6efb57-77a0-5636-b1c2-92f816a1abf8" class="er entityLabel">NOTIFICATION</text><rect height="21" width="49.4078369140625" y="24" x="0" class="er attributeBoxOdd"/><text style="dominant-baseline: middle; font-size: 10.2px;" transform="translate(5,34.5)" y="0" x="0" id="text-entity-NOTIFICATION-5f6efb57-77a0-5636-b1c2-92f816a1abf8-attr-1-type" class="er entityLabel">int</text><rect height="21" width="57.322052001953125" y="24" x="49.4078369140625" class="er attributeBoxOdd"/><text style="dominant-baseline: middle; font-size: 10.2px;" transform="translate(54.4078369140625,34.5)" y="0" x="0" id="text-entity-NOTIFICATION-5f6efb57-77a0-5636-b1c2-92f816a1abf8-attr-1-name" class="er entityLabel">id</text><rect height="21" width="23.79498291015625" y="24" x="106.72988891601562" class="er attributeBoxOdd"/><text style="dominant-baseline: middle; font-size: 10.2px;" transform="translate(111.72988891601562,34.5)" y="0" x="0" id="text-entity-NOTIFICATION-5f6efb57-77a0-5636-b1c2-92f816a1abf8-attr-1-key" class="er entityLabel">PK</text><rect height="21" width="49.4078369140625" y="45" x="0" class="er attributeBoxEven"/><text style="dominant-baseline: middle; font-size: 10.2px;" transform="translate(5,55.5)" y="0" x="0" id="text-entity-NOTIFICATION-5f6efb57-77a0-5636-b1c2-92f816a1abf8-attr-2-type" class="er entityLabel">string</text><rect height="21" width="57.322052001953125" y="45" x="49.4078369140625" class="er attributeBoxEven"/><text style="dominant-baseline: middle; font-size: 10.2px;" transform="translate(54.4078369140625,55.5)" y="0" x="0" id="text-entity-NOTIFICATION-5f6efb57-77a0-5636-b1c2-92f816a1abf8-attr-2-name" class="er entityLabel">type</text><rect height="21" width="23.79498291015625" y="45" x="106.72988891601562" class="er attributeBoxEven"/><text style="dominant-baseline: middle; font-size: 10.2px;" transform="translate(111.72988891601562,55.5)" y="0" x="0" id="text-entity-NOTIFICATION-5f6efb57-77a0-5636-b1c2-92f816a1abf8-attr-2-key" class="er entityLabel"/><rect height="21" width="49.4078369140625" y="66" x="0" class="er attributeBoxOdd"/><text style="dominant-baseline: middle; font-size: 10.2px;" transform="translate(5,76.5)" y="0" x="0" id="text-entity-NOTIFICATION-5f6efb57-77a0-5636-b1c2-92f816a1abf8-attr-3-type" class="er entityLabel">datetime</text><rect height="21" width="57.322052001953125" y="66" x="49.4078369140625" class="er attributeBoxOdd"/><text style="dominant-baseline: middle; font-size: 10.2px;" transform="translate(54.4078369140625,76.5)" y="0" x="0" id="text-entity-NOTIFICATION-5f6efb57-77a0-5636-b1c2-92f816a1abf8-attr-3-name" class="er entityLabel">timestamp</text><rect height="21" width="23.79498291015625" y="66" x="106.72988891601562" class="er attributeBoxOdd"/><text style="dominant-baseline: middle; font-size: 10.2px;" transform="translate(111.72988891601562,76.5)" y="0" x="0" id="text-entity-NOTIFICATION-5f6efb57-77a0-5636-b1c2-92f816a1abf8-attr-3-key" class="er entityLabel"/><rect height="21" width="49.4078369140625" y="87" x="0" class="er attributeBoxEven"/><text style="dominant-baseline: middle; font-size: 10.2px;" transform="translate(5,97.5)" y="0" x="0" id="text-entity-NOTIFICATION-5f6efb57-77a0-5636-b1c2-92f816a1abf8-attr-4-type" class="er entityLabel">int</text><rect height="21" width="57.322052001953125" y="87" x="49.4078369140625" class="er attributeBoxEven"/><text style="dominant-baseline: middle; font-size: 10.2px;" transform="translate(54.4078369140625,97.5)" y="0" x="0" id="text-entity-NOTIFICATION-5f6efb57-77a0-5636-b1c2-92f816a1abf8-attr-4-name" class="er entityLabel">user_id</text><rect height="21" width="23.79498291015625" y="87" x="106.72988891601562" class="er attributeBoxEven"/><text style="dominant-baseline: middle; font-size: 10.2px;" transform="translate(111.72988891601562,97.5)" y="0" x="0" id="text-entity-NOTIFICATION-5f6efb57-77a0-5636-b1c2-92f816a1abf8-attr-4-key" class="er entityLabel">FK</text></g><rect height="14" width="44.703125" y="141.88941955566406" x="239.63702392578125" class="er relationshipLabelBox"/><text style="text-anchor: middle; dominant-baseline: middle; font-size: 12px;" y="148.88941955566406" x="261.98858642578125" id="rel1" class="er relationshipLabel">contains</text><rect height="14" width="76.03125" y="141.88949584960938" x="420.5819091796875" class="er relationshipLabelBox"/><text style="text-anchor: middle; dominant-baseline: middle; font-size: 12px;" y="148.88949584960938" x="458.5975341796875" id="rel2" class="er relationshipLabel">has_members</text><rect height="14" width="54.03125" y="345.2201232910156" x="81.17700958251953" class="er relationshipLabelBox"/><text style="text-anchor: middle; dominant-baseline: middle; font-size: 12px;" y="352.2201232910156" x="108.19263458251953" id="rel3" class="er relationshipLabel">has_tasks</text><rect height="14" width="106.0625" y="362.7755432128906" x="248.34188842773438" class="er relationshipLabelBox"/><text style="text-anchor: middle; dominant-baseline: middle; font-size: 12px;" y="369.7755432128906" x="301.3731384277344" id="rel4" class="er relationshipLabel">contains_messages</text><rect height="14" width="65.04296875" y="332.1397705078125" x="237.49319458007812" class="er relationshipLabelBox"/><text style="text-anchor: middle; dominant-baseline: middle; font-size: 12px;" y="339.1397705078125" x="270.0146789550781" id="rel5" class="er relationshipLabel">assigned_to</text><rect height="14" width="28.6875" y="360.03717041015625" x="453.8750915527344" class="er relationshipLabelBox"/><text style="text-anchor: middle; dominant-baseline: middle; font-size: 12px;" y="367.03717041015625" x="468.2188415527344" id="rel6" class="er relationshipLabel">posts</text><rect height="14" width="50.703125" y="325.4355163574219" x="476.5169677734375" class="er relationshipLabelBox"/><text style="text-anchor: middle; dominant-baseline: middle; font-size: 12px;" y="332.4355163574219" x="501.8685302734375" id="rel7" class="er relationshipLabel">has_polls</text><rect height="14" width="64.71875" y="592.25" x="602.74365234375" class="er relationshipLabelBox"/><text style="text-anchor: middle; dominant-baseline: middle; font-size: 12px;" y="599.25" x="635.10302734375" id="rel8" class="er relationshipLabel">has_options</text><rect height="14" width="44.6875" y="321.9679260253906" x="695.9876708984375" class="er relationshipLabelBox"/><text style="text-anchor: middle; dominant-baseline: middle; font-size: 12px;" y="328.9679260253906" x="718.3314208984375" id="rel9" class="er relationshipLabel">receives</text><style>svg span {
  font-family: 'Arial' !important;
}

svg {
  font-family: 'Arial' !important;
  -webkit-user-select: none;
  -moz-user-select: none;
  -ms-user-select: none;
  user-select: none;
}
</style></svg>